<?xml version="1.0" encoding="iso-8859-1"?>
<!-- Uploaded to: SVG Repo, www.svgrepo.com, Generator: SVG Repo Mixer Tools -->
<svg version="1.1" id="Layer_1" xmlns="http://www.w3.org/2000/svg" xmlns:xlink="http://www.w3.org/1999/xlink" 
	 viewBox="0 0 512 512" xml:space="preserve">
<g>
	<rect x="72.314" y="10.199" style="fill:#FFD890;" width="271.431" height="395.668"/>
	<rect x="119.759" y="57.646" style="fill:#FFD890;" width="271.431" height="395.668"/>
	<rect x="168.246" y="106.133" style="fill:#FFD890;" width="271.431" height="395.668"/>
</g>
<g>
	<path style="fill:#4C1D1D;" d="M439.686,95.935h-38.288V57.647c0-5.633-4.567-10.199-10.199-10.199H353.95V10.199
		C353.95,4.566,349.383,0,343.751,0H72.314c-5.633,0-10.199,4.566-10.199,10.199v395.667c0,5.633,4.566,10.199,10.199,10.199h37.249
		v37.249c0,5.633,4.566,10.199,10.199,10.199h38.289v38.288c0,5.633,4.566,10.199,10.199,10.199h271.435
		c5.632,0,10.199-4.566,10.199-10.199V106.134C449.885,100.501,445.318,95.935,439.686,95.935z M82.514,395.667V20.398h251.037
		v27.049H119.762c-5.633,0-10.199,4.566-10.199,10.199v338.02H82.514z M129.961,443.114V67.846h251.038v28.09h-212.75
		c-5.633,0-10.199,4.566-10.199,10.199v336.98h-28.089V443.114z M429.486,491.602H178.448V116.333h251.037v375.268H429.486z"/>
	<path style="fill:#4C1D1D;" d="M384.308,186.107h3.048c5.632,0,10.199-4.566,10.199-10.199s-4.567-10.199-10.199-10.199h-3.048
		c-5.632,0-10.199,4.566-10.199,10.199S378.675,186.107,384.308,186.107z"/>
	<path style="fill:#4C1D1D;" d="M220.579,186.107h127.807c5.632,0,10.199-4.566,10.199-10.199s-4.567-10.199-10.199-10.199H220.579
		c-5.633,0-10.199,4.566-10.199,10.199S214.947,186.107,220.579,186.107z"/>
	<path style="fill:#4C1D1D;" d="M220.579,250.136h166.776c5.632,0,10.199-4.566,10.199-10.199s-4.567-10.199-10.199-10.199H220.579
		c-5.633,0-10.199,4.566-10.199,10.199S214.947,250.136,220.579,250.136z"/>
	<path style="fill:#4C1D1D;" d="M220.579,314.167h166.776c5.632,0,10.199-4.566,10.199-10.199s-4.567-10.199-10.199-10.199H220.579
		c-5.633,0-10.199,4.566-10.199,10.199S214.947,314.167,220.579,314.167z"/>
	<path style="fill:#4C1D1D;" d="M220.579,379.045h166.776c5.632,0,10.199-4.566,10.199-10.199s-4.567-10.199-10.199-10.199H220.579
		c-5.633,0-10.199,4.566-10.199,10.199S214.947,379.045,220.579,379.045z"/>
	<path style="fill:#4C1D1D;" d="M220.579,443.075h166.776c5.632,0,10.199-4.566,10.199-10.199s-4.567-10.199-10.199-10.199H220.579
		c-5.633,0-10.199,4.566-10.199,10.199S214.947,443.075,220.579,443.075z"/>
</g>
</svg>