<svg xmlns="http://www.w3.org/2000/svg" width="174" height="55" viewBox="0 0 174 55" fill="none">
<path d="M23.9907 0L0 14.9176L5.34229 18.555L28.086 3.41096L23.9907 0ZM8.79991 38.6669V35.624L5.37064 37.9168L8.79991 38.6669ZM17.5148 44.6821V41.4269L14.213 43.6631L17.5148 44.6821ZM31.7703 5.47734L28.0718 8.02493L8.79991 20.7913L13.9155 24.3155V24.273L36.8009 9.01568L31.7703 5.47734ZM40.3435 11.5208L36.8859 14.0543L17.5006 26.9904L22.8854 30.6562L45.6008 15.2431L40.3435 11.5208Z" fill="white"/>
<path d="M22.8996 30.628L17.5148 26.9764V44.6822L13.9155 43.8472V24.3297L8.79991 20.7914V38.667L5.37064 37.9169V18.5834L0 14.9177V39.2757L22.8996 55V30.628Z" fill="#9E0621"/>
<path d="M38.9266 26.382L38.9124 44.0595L30.6085 38.7803V31.5763L38.9266 25.9149V26.382Z" fill="#9E0621"/>
<path d="M5.371 36.3035L5.32849 18.5552L28.0722 3.41113V8.03926L8.80027 20.8056V35.6383L5.371 37.9311V36.3035ZM13.9158 43.8472L17.501 41.427V26.9765L36.8862 14.0544V8.98751L13.9158 24.3015V42.2338V43.8472ZM22.8999 30.628V54.9859L30.6087 49.9615V31.6329L38.9268 25.9574L38.9126 44.0454L45.6153 39.7852V15.2009L22.8999 30.628Z" fill="#B1B3B6"/>
<path d="M69.2233 40.1672H65.7657V31.9582H62.5349V40.1672H59.1198V29.3965H69.2233V40.1672Z" fill="black"/>
<path d="M76.3936 29.3965H73.3895L69.0391 40.1672H72.7801L75.0191 33.5151L77.3147 40.1672H80.8007L76.3936 29.3965Z" fill="black"/>
<path d="M80.8433 40.1672H83.1672L88.2261 34.8597V40.1672H91.5845V29.3965H88.8213L84.2017 34.4634V29.3965H80.8433V40.1672Z" fill="black"/>
<path d="M98.9107 40.1672H95.4956V31.9582H92.5623V29.3965H101.816V31.9582H98.9107V40.1672Z" fill="black"/>
<path d="M114.116 40.1672H110.219L106.534 34.6615V40.1672H103.105V29.3965H106.534V34.2652L109.723 29.3965H113.52L110.134 34.2652L114.116 40.1672Z" fill="black"/>
<path d="M125.012 40.1672H121.399L120.832 38.398H117.275L116.652 40.1672H113.251L117.488 29.3965H120.846L125.012 40.1672ZM120.194 36.4873L119.217 33.4585C119.202 33.3877 119.174 33.3028 119.16 33.2179C119.146 33.1188 119.117 33.0339 119.103 32.9348C119.075 33.0339 119.061 33.133 119.032 33.232C119.004 33.3311 118.99 33.416 118.961 33.4585L117.941 36.4732H120.194V36.4873Z" fill="black"/>
<path d="M72.4826 13.3607V21.5555H69.2517V13.3607H65.8082V21.5555H62.5632V13.3607H59.1198V24.1172H75.9118V13.3607H72.4826Z" fill="black"/>
<path d="M87.8576 24.1172H84.2441L83.6772 22.3481H80.1205L79.4969 24.1172H76.096L80.3188 13.3607H83.6772L87.8576 24.1172ZM83.0254 20.4515L82.0476 17.4227C82.0335 17.352 82.0051 17.267 81.991 17.1821C81.9626 17.0972 81.9485 16.9981 81.9343 16.9132C81.9059 17.0123 81.8918 17.1255 81.8634 17.2104C81.8351 17.3095 81.8209 17.3802 81.7926 17.4368L80.7581 20.4515H83.0254Z" fill="black"/>
<path d="M82.0504 8.55994L80.7901 11.6871H82.6805L85.201 8.55994H82.0504Z" fill="black"/>
<path d="M98.4428 24.1172H94.6026L92.8596 21.3856L91.0316 24.1172H87.3189L91.0316 18.4983L87.6449 13.3607H91.4425L92.9588 15.6818L94.4042 13.3607H98.2302L94.801 18.4983L98.4428 24.1172Z" fill="black"/>
<path d="M104.89 24.1172H101.475V15.9225H98.5419V13.3607H107.795V15.9225H104.89V24.1172Z" fill="black"/>
<path d="M108.915 24.1172H111.253L116.312 18.8239V24.1172H119.671V13.3607H116.907L112.274 18.4276V13.3607H108.915V24.1172Z" fill="black"/>
<path d="M131.46 24.1172H128.017V19.7722H124.786V24.1172H121.357V13.3607H124.786V17.2104H128.017V13.3607H131.46V24.1172Z" fill="black"/>
<path d="M140.544 24.1172C140.345 24.1739 140.09 24.2305 139.764 24.2871C139.438 24.3579 138.985 24.3862 138.404 24.3862C137.469 24.3862 136.619 24.2447 135.868 23.9757C135.116 23.7068 134.465 23.3246 133.926 22.8293C133.388 22.3339 132.977 21.7537 132.693 21.0884C132.41 20.4232 132.268 19.6872 132.268 18.8947C132.268 18.1445 132.396 17.4227 132.665 16.7151C132.934 16.0216 133.331 15.3988 133.869 14.8468C134.408 14.309 135.074 13.8844 135.896 13.5589C136.704 13.2333 137.667 13.0635 138.744 13.0635C139.353 13.0635 139.892 13.1059 140.374 13.1909C140.841 13.2758 141.252 13.3607 141.607 13.4315V16.2621C141.507 16.1914 141.394 16.1064 141.252 16.0215C141.111 15.9366 140.955 15.8517 140.756 15.7668C140.558 15.696 140.345 15.6253 140.09 15.5686C139.849 15.512 139.566 15.4979 139.24 15.4979C138.673 15.4979 138.177 15.5828 137.738 15.7668C137.313 15.9366 136.959 16.1914 136.675 16.4886C136.392 16.8 136.165 17.1396 136.023 17.5359C135.882 17.9181 135.797 18.3427 135.797 18.7673C135.797 19.2202 135.882 19.6448 136.038 20.0552C136.208 20.4657 136.434 20.8054 136.746 21.1026C137.044 21.3998 137.426 21.6263 137.88 21.7961C138.333 21.966 138.843 22.0509 139.41 22.0509C139.736 22.0509 140.048 22.0226 140.331 21.9801C140.615 21.9377 140.87 21.881 141.096 21.8103C141.323 21.7395 141.522 21.6829 141.706 21.6121C141.876 21.5555 142.003 21.4989 142.103 21.4564L140.544 24.1172Z" fill="black"/>
<path d="M154.175 24.1172H150.293L146.594 18.6258V24.1172H143.179V13.3607H146.594V18.2153L149.783 13.3607H153.58L150.193 18.2153L154.175 24.1172Z" fill="black"/>
<path d="M164.549 24.1172H160.935L160.368 22.3481H156.811L156.188 24.1172H152.787L157.024 13.3607H160.382L164.549 24.1172ZM159.716 20.4515L158.739 17.4227C158.71 17.352 158.696 17.267 158.682 17.1821C158.654 17.0972 158.639 16.9981 158.625 16.9132C158.611 17.0123 158.583 17.1255 158.554 17.2104C158.526 17.3095 158.512 17.3802 158.484 17.4368L157.463 20.4515H159.716Z" fill="black"/>
<path d="M163.4 24.1172H167.113L169.777 19.6589H170.67V24.1172H174V13.3607H168.969C168.629 13.3607 168.346 13.3607 168.091 13.389C167.836 13.4032 167.581 13.4315 167.326 13.4881C166.83 13.5872 166.419 13.757 166.107 13.9976C165.795 14.2382 165.54 14.493 165.356 14.7761C165.172 15.0591 165.058 15.3563 164.988 15.6536C164.917 15.9508 164.888 16.2055 164.888 16.432C164.888 16.8566 164.973 17.267 165.143 17.6633C165.243 17.8898 165.356 18.0738 165.498 18.2436C165.625 18.4134 165.753 18.555 165.88 18.6541C166.008 18.7673 166.121 18.8522 166.235 18.9371C166.348 19.0079 166.433 19.0645 166.504 19.107L163.4 24.1172ZM170.67 19.39L169.451 17.635C169.338 17.635 169.239 17.635 169.125 17.6208C169.026 17.6208 168.927 17.5926 168.828 17.5501C168.615 17.4652 168.474 17.3519 168.36 17.1821C168.261 17.0264 168.204 16.8424 168.204 16.6301C168.204 16.4603 168.247 16.3046 168.318 16.1772C168.388 16.0498 168.488 15.9508 168.587 15.8941C168.729 15.7951 168.899 15.7385 169.097 15.7243C169.295 15.7102 169.48 15.696 169.65 15.696H170.684V19.39H170.67Z" fill="black"/>
</svg>