<?xml version="1.0" encoding="iso-8859-1"?>
<!-- Uploaded to: SVG Repo, www.svgrepo.com, Generator: SVG Repo Mixer Tools -->
<svg version="1.1" id="Layer_1" xmlns="http://www.w3.org/2000/svg" xmlns:xlink="http://www.w3.org/1999/xlink" 
	 viewBox="0 0 512 512" xml:space="preserve">
<rect x="112.283" y="58.503" style="fill:#FFD890;" width="287.424" height="443.298"/>
<g>
	<path style="fill:#947C7C;" d="M317.182,298.935H194.818v-17.531c0-29.443,23.868-53.31,53.31-53.31h15.742
		c29.443,0,53.31,23.868,53.31,53.31v17.531H317.182z"/>
	<circle style="fill:#947C7C;" cx="256" cy="180.332" r="46.691"/>
</g>
<rect x="224.872" y="10.199" style="fill:#95DEED;" width="62.256" height="83.725"/>
<g>
	<path style="fill:#4C1D1D;" d="M399.712,48.301H297.327V10.199C297.327,4.567,292.761,0,287.128,0h-62.256
		c-5.633,0-10.199,4.567-10.199,10.199v38.102H112.288c-5.633,0-10.199,4.567-10.199,10.199v443.3
		c0,5.632,4.566,10.199,10.199,10.199h287.424c5.633,0,10.199-4.567,10.199-10.199v-443.3
		C409.911,52.869,405.345,48.301,399.712,48.301z M235.071,20.398h41.856v63.324h-41.856V20.398z M389.513,491.602H122.487V68.7
		h92.186v25.222c0,5.632,4.566,10.199,10.199,10.199h62.255c5.633,0,10.199-4.567,10.199-10.199V68.7h92.186L389.513,491.602
		L389.513,491.602z"/>
	<path style="fill:#4C1D1D;" d="M337.623,375.683h5.061c5.633,0,10.199-4.567,10.199-10.199c0-5.632-4.566-10.199-10.199-10.199
		h-5.061c-5.633,0-10.199,4.567-10.199,10.199C327.424,371.115,331.99,375.683,337.623,375.683z"/>
	<path style="fill:#4C1D1D;" d="M169.316,375.683h126.141c5.633,0,10.199-4.567,10.199-10.199c0-5.632-4.566-10.199-10.199-10.199
		H169.316c-5.633,0-10.199,4.567-10.199,10.199C159.117,371.115,163.683,375.683,169.316,375.683z"/>
	<path style="fill:#4C1D1D;" d="M342.684,419.241H169.316c-5.633,0-10.199,4.567-10.199,10.199c0,5.632,4.566,10.199,10.199,10.199
		h173.368c5.633,0,10.199-4.567,10.199-10.199C352.883,423.809,348.317,419.241,342.684,419.241z"/>
	<path style="fill:#4C1D1D;" d="M291.891,224.427c12.804-10.44,20.999-26.328,20.999-44.099c0-31.37-25.52-56.89-56.89-56.89
		s-56.89,25.52-56.89,56.89c0,17.771,8.195,33.659,20.999,44.099c-21.003,10.372-35.489,32.009-35.489,56.976v17.53
		c0,5.632,4.566,10.199,10.199,10.199h122.364c5.633,0,10.199-4.567,10.199-10.199v-17.53
		C327.381,256.437,312.895,234.799,291.891,224.427z M256,143.835c20.122,0,36.492,16.371,36.492,36.492
		s-16.37,36.492-36.492,36.492s-36.492-16.371-36.492-36.492S235.878,143.835,256,143.835z M306.983,288.735H205.017v-7.331
		c0-23.772,19.34-43.112,43.111-43.112h15.743c23.771,0,43.111,19.34,43.111,43.112V288.735z"/>
</g>
</svg>